<svg width="26" height="26" viewBox="0 0 26 26" fill="none" xmlns="http://www.w3.org/2000/svg">
<path d="M12.6 2.27026C15.9644 2.27026 16.3629 2.28311 17.6915 2.34373C18.92 2.39975 19.5871 2.60501 20.0311 2.77757C20.6193 3.00614 21.039 3.27917 21.4799 3.72006C21.9208 4.161 22.1939 4.58073 22.4224 5.16886C22.595 5.61285 22.8003 6.28001 22.8563 7.50849C22.9169 8.83711 22.9297 9.23563 22.9297 12.5999C22.9297 15.9643 22.9169 16.3628 22.8563 17.6914C22.8003 18.9199 22.595 19.5871 22.4224 20.031C22.1939 20.6192 21.9208 21.0389 21.4799 21.4798C21.039 21.9207 20.6193 22.1938 20.0311 22.4223C19.5871 22.5949 18.92 22.8002 17.6915 22.8562C16.3631 22.9168 15.9646 22.9297 12.6 22.9297C9.23543 22.9297 8.837 22.9168 7.50853 22.8562C6.28005 22.8002 5.61289 22.5949 5.1689 22.4223C4.58076 22.1938 4.16103 21.9207 3.72014 21.4798C3.27925 21.0389 3.00616 20.6192 2.77759 20.031C2.60504 19.5871 2.39977 18.9199 2.34375 17.6914C2.28314 16.3628 2.27028 15.9643 2.27028 12.5999C2.27028 9.23563 2.28314 8.83711 2.34375 7.50849C2.39977 6.28001 2.60504 5.61285 2.77759 5.16886C3.00616 4.58073 3.2792 4.161 3.72014 3.72011C4.16103 3.27917 4.58076 3.00614 5.1689 2.77757C5.61289 2.60501 6.28005 2.39975 7.50853 2.34373C8.83715 2.28311 9.23568 2.27026 12.6 2.27026ZM12.6 0C9.17806 0 8.74897 0.0145045 7.40505 0.0758237C6.06393 0.136993 5.14799 0.350009 4.34654 0.661456C3.51798 0.983457 2.8153 1.41429 2.11478 2.11476C1.41431 2.81528 0.983475 3.51795 0.661524 4.34651C0.350026 5.14796 0.137008 6.06389 0.0758392 7.40501C0.0145198 8.74893 1.52588e-05 9.17801 1.52588e-05 12.5999C1.52588e-05 16.0219 0.0145198 16.451 0.0758392 17.7949C0.137008 19.136 0.350026 20.052 0.661524 20.8534C0.983475 21.682 1.41431 22.3846 2.11478 23.0852C2.8153 23.7856 3.51798 24.2165 4.34654 24.5384C5.14799 24.8499 6.06393 25.0629 7.40505 25.1241C8.74897 25.1854 9.17806 25.1999 12.6 25.1999C16.022 25.1999 16.4511 25.1854 17.795 25.1241C19.1361 25.0629 20.052 24.8499 20.8535 24.5384C21.6821 24.2165 22.3847 23.7856 23.0852 23.0852C23.7857 22.3846 24.2166 21.682 24.5386 20.8534C24.85 20.052 25.063 19.136 25.1242 17.7949C25.1855 16.451 25.2 16.0219 25.2 12.5999C25.2 9.17801 25.1855 8.74893 25.1242 7.40501C25.063 6.06389 24.85 5.14796 24.5386 4.34651C24.2166 3.51795 23.7857 2.81528 23.0852 2.11476C22.3847 1.41429 21.6821 0.983457 20.8535 0.661456C20.052 0.350009 19.1361 0.136993 17.795 0.0758237C16.4511 0.0145045 16.022 0 12.6 0Z" fill="white"/>
<path d="M12.6051 6.13597C9.03158 6.13597 6.13477 9.03278 6.13477 12.6062C6.13477 16.1797 9.03158 19.0765 12.6051 19.0765C16.1785 19.0765 19.0753 16.1797 19.0753 12.6062C19.0753 9.03278 16.1785 6.13597 12.6051 6.13597ZM12.6051 16.8062C10.2854 16.8062 8.40503 14.9258 8.40503 12.6062C8.40503 10.2866 10.2854 8.40623 12.6051 8.40623C14.9246 8.40623 16.805 10.2866 16.805 12.6062C16.805 14.9258 14.9246 16.8062 12.6051 16.8062Z" fill="white"/>
<path d="M20.8431 5.87612C20.8431 6.71114 20.1662 7.3881 19.3311 7.3881C18.4961 7.3881 17.8191 6.71114 17.8191 5.87612C17.8191 5.04106 18.4961 4.3641 19.3311 4.3641C20.1662 4.3641 20.8431 5.04106 20.8431 5.87612Z" fill="white"/>
</svg>
