<svg width="26" height="21" viewBox="0 0 26 21" fill="none" xmlns="http://www.w3.org/2000/svg">
<path fill-rule="evenodd" clip-rule="evenodd" d="M26.0008 2.62403C25.0743 3.0356 24.0773 3.31278 23.0316 3.43793C24.0991 2.79789 24.9189 1.78492 25.3045 0.577923C24.3066 1.17092 23.1987 1.60014 22.022 1.8328C21.0787 0.828229 19.734 0.199951 18.2481 0.199951C15.3931 0.199951 13.0782 2.51484 13.0782 5.36981C13.0782 5.77466 13.1244 6.16943 13.2126 6.54825C8.91548 6.33322 5.10633 4.27452 2.55626 1.14657C2.11109 1.91008 1.85659 2.7979 1.85659 3.74536C1.85659 5.53864 2.76793 7.1211 4.15636 8.0484C3.30801 8.02152 2.51175 7.78885 1.81375 7.40163V7.46631C1.81375 9.97186 3.59695 12.0608 5.96056 12.5371C5.52714 12.6546 5.07022 12.7185 4.59901 12.7185C4.26555 12.7185 3.94133 12.6857 3.62551 12.6252C4.28319 14.6789 6.19322 16.174 8.45519 16.216C6.68627 17.6019 4.45706 18.4293 2.03466 18.4293C1.61637 18.4293 1.20479 18.4049 0.800781 18.3562C3.08879 19.8227 5.80601 20.6795 8.72565 20.6795C18.2347 20.6795 23.4348 12.8016 23.4348 5.97036C23.4348 5.7461 23.4306 5.52268 23.4196 5.30177C24.4309 4.57102 25.3078 3.66052 26.0008 2.62403Z" fill="white"/>
</svg>
